<?xml version="1.0" standalone="no"?>
<!DOCTYPE svg PUBLIC "-//W3C//DTD SVG 20010904//EN"
 "http://www.w3.org/TR/2001/REC-SVG-20010904/DTD/svg10.dtd">
<svg version="1.0" xmlns="http://www.w3.org/2000/svg"
 width="200.000000pt" height="200.000000pt" viewBox="0 0 200.000000 200.000000"
 preserveAspectRatio="xMidYMid meet">

<g transform="translate(0.000000,200.000000) scale(0.100000,-0.100000)"
fill="#FFFFFF" stroke="none">
<path d="M866 1990 c-221 -35 -399 -124 -558 -278 -401 -388 -407 -1017 -15
-1413 251 -253 624 -355 972 -264 71 19 209 81 229 104 27 31 28 58 5 80 -31
28 -59 26 -127 -8 -171 -86 -400 -107 -605 -56 -90 23 -253 107 -322 166 -139
119 -251 291 -290 446 -36 144 -36 322 0 466 23 90 107 253 166 322 119 139
291 251 446 290 144 36 322 36 466 0 155 -39 327 -151 446 -290 59 -69 143
-232 165 -321 38 -148 38 -320 1 -469 -21 -83 -93 -228 -149 -299 -50 -65 -58
-102 -28 -129 22 -20 51 -21 73 -4 29 23 111 142 149 217 87 173 123 371 101
558 -57 494 -461 869 -956 887 -60 2 -137 0 -169 -5z"/>
<path d="M956 1504 c-24 -23 -24 -525 0 -548 13 -14 59 -16 353 -16 373 0 374
0 374 60 0 59 -5 60 -330 60 l-293 0 0 214 c0 236 -3 246 -60 246 -16 0 -36
-7 -44 -16z"/>
</g>
</svg>
